<svg xmlns="http://www.w3.org/2000/svg" viewBox="0 0 357 49" role="img" aria-label="DEADROCK"><title>DEADROCK</title><rect x="0" y="0" width="7" height="7" fill="#f4f2ed"/><rect x="7" y="0" width="7" height="7" fill="#f4f2ed"/><rect x="14" y="0" width="7" height="7" fill="#f4f2ed"/><rect x="0" y="7" width="7" height="7" fill="#f4f2ed"/><rect x="21" y="7" width="7" height="7" fill="#f4f2ed"/><rect x="0" y="14" width="7" height="7" fill="#f4f2ed"/><rect x="21" y="14" width="7" height="7" fill="#f4f2ed"/><rect x="0" y="21" width="7" height="7" fill="#f4f2ed"/><rect x="21" y="21" width="7" height="7" fill="#f4f2ed"/><rect x="0" y="28" width="7" height="7" fill="#f4f2ed"/><rect x="21" y="28" width="7" height="7" fill="#f4f2ed"/><rect x="0" y="35" width="7" height="7" fill="#f4f2ed"/><rect x="21" y="35" width="7" height="7" fill="#f4f2ed"/><rect x="0" y="42" width="7" height="7" fill="#f4f2ed"/><rect x="7" y="42" width="7" height="7" fill="#f4f2ed"/><rect x="14" y="42" width="7" height="7" fill="#f4f2ed"/><rect x="35" y="0" width="7" height="7" fill="#f4f2ed"/><rect x="42" y="0" width="7" height="7" fill="#f4f2ed"/><rect x="49" y="0" width="7" height="7" fill="#f4f2ed"/><rect x="56" y="0" width="7" height="7" fill="#f4f2ed"/><rect x="63" y="0" width="7" height="7" fill="#f4f2ed"/><rect x="35" y="7" width="7" height="7" fill="#f4f2ed"/><rect x="35" y="14" width="7" height="7" fill="#f4f2ed"/><rect x="42" y="14" width="7" height="7" fill="#f4f2ed"/><rect x="49" y="14" width="7" height="7" fill="#f4f2ed"/><rect x="56" y="14" width="7" height="7" fill="#f4f2ed"/><rect x="35" y="21" width="7" height="7" fill="#f4f2ed"/><rect x="35" y="28" width="7" height="7" fill="#f4f2ed"/><rect x="35" y="35" width="7" height="7" fill="#f4f2ed"/><rect x="35" y="42" width="7" height="7" fill="#f4f2ed"/><rect x="42" y="42" width="7" height="7" fill="#f4f2ed"/><rect x="49" y="42" width="7" height="7" fill="#f4f2ed"/><rect x="56" y="42" width="7" height="7" fill="#f4f2ed"/><rect x="63" y="42" width="7" height="7" fill="#f4f2ed"/><rect x="84" y="0" width="7" height="7" fill="#f4f2ed"/><rect x="91" y="0" width="7" height="7" fill="#f4f2ed"/><rect x="98" y="0" width="7" height="7" fill="#f4f2ed"/><rect x="77" y="7" width="7" height="7" fill="#f4f2ed"/><rect x="105" y="7" width="7" height="7" fill="#f4f2ed"/><rect x="77" y="14" width="7" height="7" fill="#f4f2ed"/><rect x="105" y="14" width="7" height="7" fill="#f4f2ed"/><rect x="77" y="21" width="7" height="7" fill="#f4f2ed"/><rect x="84" y="21" width="7" height="7" fill="#f4f2ed"/><rect x="91" y="21" width="7" height="7" fill="#f4f2ed"/><rect x="98" y="21" width="7" height="7" fill="#f4f2ed"/><rect x="105" y="21" width="7" height="7" fill="#f4f2ed"/><rect x="77" y="28" width="7" height="7" fill="#f4f2ed"/><rect x="105" y="28" width="7" height="7" fill="#f4f2ed"/><rect x="77" y="35" width="7" height="7" fill="#f4f2ed"/><rect x="105" y="35" width="7" height="7" fill="#f4f2ed"/><rect x="77" y="42" width="7" height="7" fill="#f4f2ed"/><rect x="105" y="42" width="7" height="7" fill="#f4f2ed"/><rect x="119" y="0" width="7" height="7" fill="#f4f2ed"/><rect x="126" y="0" width="7" height="7" fill="#f4f2ed"/><rect x="133" y="0" width="7" height="7" fill="#f4f2ed"/><rect x="119" y="7" width="7" height="7" fill="#f4f2ed"/><rect x="140" y="7" width="7" height="7" fill="#f4f2ed"/><rect x="119" y="14" width="7" height="7" fill="#f4f2ed"/><rect x="140" y="14" width="7" height="7" fill="#f4f2ed"/><rect x="119" y="21" width="7" height="7" fill="#f4f2ed"/><rect x="140" y="21" width="7" height="7" fill="#f4f2ed"/><rect x="119" y="28" width="7" height="7" fill="#f4f2ed"/><rect x="140" y="28" width="7" height="7" fill="#f4f2ed"/><rect x="119" y="35" width="7" height="7" fill="#f4f2ed"/><rect x="140" y="35" width="7" height="7" fill="#f4f2ed"/><rect x="119" y="42" width="7" height="7" fill="#f4f2ed"/><rect x="126" y="42" width="7" height="7" fill="#f4f2ed"/><rect x="133" y="42" width="7" height="7" fill="#f4f2ed"/><rect x="154" y="0" width="7" height="7" fill="#88978e"/><rect x="154" y="7" width="7" height="7" fill="#88978e"/><rect x="154" y="14" width="7" height="7" fill="#88978e"/><rect x="154" y="21" width="7" height="7" fill="#88978e"/><rect x="154" y="28" width="7" height="7" fill="#88978e"/><rect x="154" y="35" width="7" height="7" fill="#88978e"/><rect x="154" y="42" width="7" height="7" fill="#88978e"/><rect x="161" y="42" width="7" height="7" fill="#88978e"/><rect x="168" y="42" width="7" height="7" fill="#88978e"/><rect x="175" y="42" width="7" height="7" fill="#88978e"/><rect x="182" y="42" width="7" height="7" fill="#88978e"/><path d="M156 2 L185 47 M185 2 L156 47" stroke="#ff5b35" stroke-width="5" shape-rendering="crispEdges"/><rect x="196" y="0" width="7" height="7" fill="#79ff9a"/><rect x="203" y="0" width="7" height="7" fill="#79ff9a"/><rect x="210" y="0" width="7" height="7" fill="#79ff9a"/><rect x="217" y="0" width="7" height="7" fill="#79ff9a"/><rect x="196" y="7" width="7" height="7" fill="#79ff9a"/><rect x="224" y="7" width="7" height="7" fill="#79ff9a"/><rect x="196" y="14" width="7" height="7" fill="#79ff9a"/><rect x="224" y="14" width="7" height="7" fill="#79ff9a"/><rect x="196" y="21" width="7" height="7" fill="#79ff9a"/><rect x="203" y="21" width="7" height="7" fill="#79ff9a"/><rect x="210" y="21" width="7" height="7" fill="#79ff9a"/><rect x="217" y="21" width="7" height="7" fill="#79ff9a"/><rect x="196" y="28" width="7" height="7" fill="#79ff9a"/><rect x="210" y="28" width="7" height="7" fill="#79ff9a"/><rect x="196" y="35" width="7" height="7" fill="#79ff9a"/><rect x="217" y="35" width="7" height="7" fill="#79ff9a"/><rect x="196" y="42" width="7" height="7" fill="#79ff9a"/><rect x="224" y="42" width="7" height="7" fill="#79ff9a"/><rect x="245" y="0" width="7" height="7" fill="#f4f2ed"/><rect x="252" y="0" width="7" height="7" fill="#f4f2ed"/><rect x="259" y="0" width="7" height="7" fill="#f4f2ed"/><rect x="238" y="7" width="7" height="7" fill="#f4f2ed"/><rect x="266" y="7" width="7" height="7" fill="#f4f2ed"/><rect x="238" y="14" width="7" height="7" fill="#f4f2ed"/><rect x="266" y="14" width="7" height="7" fill="#f4f2ed"/><rect x="238" y="21" width="7" height="7" fill="#f4f2ed"/><rect x="266" y="21" width="7" height="7" fill="#f4f2ed"/><rect x="238" y="28" width="7" height="7" fill="#f4f2ed"/><rect x="266" y="28" width="7" height="7" fill="#f4f2ed"/><rect x="238" y="35" width="7" height="7" fill="#f4f2ed"/><rect x="266" y="35" width="7" height="7" fill="#f4f2ed"/><rect x="245" y="42" width="7" height="7" fill="#f4f2ed"/><rect x="252" y="42" width="7" height="7" fill="#f4f2ed"/><rect x="259" y="42" width="7" height="7" fill="#f4f2ed"/><rect x="287" y="0" width="7" height="7" fill="#f4f2ed"/><rect x="294" y="0" width="7" height="7" fill="#f4f2ed"/><rect x="301" y="0" width="7" height="7" fill="#f4f2ed"/><rect x="308" y="0" width="7" height="7" fill="#f4f2ed"/><rect x="280" y="7" width="7" height="7" fill="#f4f2ed"/><rect x="280" y="14" width="7" height="7" fill="#f4f2ed"/><rect x="280" y="21" width="7" height="7" fill="#f4f2ed"/><rect x="280" y="28" width="7" height="7" fill="#f4f2ed"/><rect x="280" y="35" width="7" height="7" fill="#f4f2ed"/><rect x="287" y="42" width="7" height="7" fill="#f4f2ed"/><rect x="294" y="42" width="7" height="7" fill="#f4f2ed"/><rect x="301" y="42" width="7" height="7" fill="#f4f2ed"/><rect x="308" y="42" width="7" height="7" fill="#f4f2ed"/><rect x="322" y="0" width="7" height="7" fill="#f4f2ed"/><rect x="350" y="0" width="7" height="7" fill="#f4f2ed"/><rect x="322" y="7" width="7" height="7" fill="#f4f2ed"/><rect x="343" y="7" width="7" height="7" fill="#f4f2ed"/><rect x="322" y="14" width="7" height="7" fill="#f4f2ed"/><rect x="336" y="14" width="7" height="7" fill="#f4f2ed"/><rect x="322" y="21" width="7" height="7" fill="#f4f2ed"/><rect x="329" y="21" width="7" height="7" fill="#f4f2ed"/><rect x="322" y="28" width="7" height="7" fill="#f4f2ed"/><rect x="336" y="28" width="7" height="7" fill="#f4f2ed"/><rect x="322" y="35" width="7" height="7" fill="#f4f2ed"/><rect x="343" y="35" width="7" height="7" fill="#f4f2ed"/><rect x="322" y="42" width="7" height="7" fill="#f4f2ed"/><rect x="350" y="42" width="7" height="7" fill="#f4f2ed"/></svg>